<svg width="16" height="16" viewBox="0 0 16 16" fill="none" xmlns="http://www.w3.org/2000/svg">
<path fill-rule="evenodd" clip-rule="evenodd" d="M8.48779 0.677246C7.73468 0.677246 7.12416 1.28777 7.12416 2.04088V6.81366L2.35167 6.81366C1.59856 6.81366 0.988037 7.42418 0.988037 8.1773C0.988037 8.93041 1.59856 9.54093 2.35167 9.54093H7.12416V14.3136C7.12416 15.0667 7.73468 15.6772 8.48779 15.6772C9.24091 15.6772 9.85143 15.0667 9.85143 14.3136V9.54093H14.6244C15.3775 9.54093 15.988 8.93041 15.988 8.1773C15.988 7.42418 15.3775 6.81366 14.6244 6.81366L9.85143 6.81366V2.04088C9.85143 1.28777 9.24091 0.677246 8.48779 0.677246Z" fill="#5A5A5A"/>
</svg>
