<svg width="18" height="18" viewBox="0 0 18 18" fill="none" xmlns="http://www.w3.org/2000/svg">
<path fill-rule="evenodd" clip-rule="evenodd" d="M0.603889 0.603817C-0.201201 1.40891 -0.201201 2.71422 0.603889 3.51931L5.70596 8.62138L0.603817 13.7235C-0.201273 14.5286 -0.201272 15.8339 0.603818 16.639C1.40891 17.4441 2.71422 17.4441 3.51931 16.639L8.62145 11.5369L13.7236 16.639C14.5287 17.4441 15.834 17.4441 16.6391 16.639C17.4442 15.8339 17.4442 14.5286 16.6391 13.7235L11.5369 8.62138L16.639 3.51931C17.4441 2.71422 17.4441 1.40891 16.639 0.603822C15.8339 -0.201268 14.5286 -0.201268 13.7235 0.603822L8.62145 5.70589L3.51938 0.603817C2.71429 -0.201272 1.40898 -0.201272 0.603889 0.603817Z" fill="#5A5A5A"/>
</svg>
